<svg width="23" height="23" viewBox="0 0 23 23" fill="none" xmlns="http://www.w3.org/2000/svg">
<path d="M18.6396 8.54663L17.3896 5.79663L14.6396 4.54663L17.3896 3.29663L18.6396 0.546631L19.8896 3.29663L22.6396 4.54663L19.8896 5.79663L18.6396 8.54663ZM18.6396 22.5466L17.3896 19.7966L14.6396 18.5466L17.3896 17.2966L18.6396 14.5466L19.8896 17.2966L22.6396 18.5466L19.8896 19.7966L18.6396 22.5466ZM8.63965 19.5466L6.13965 14.0466L0.639648 11.5466L6.13965 9.04663L8.63965 3.54663L11.1396 9.04663L16.6396 11.5466L11.1396 14.0466L8.63965 19.5466ZM8.63965 14.6966L9.63965 12.5466L11.7896 11.5466L9.63965 10.5466L8.63965 8.39663L7.63965 10.5466L5.48965 11.5466L7.63965 12.5466L8.63965 14.6966Z" fill="#20E24B"/>
</svg>
