<svg width="179" height="25" viewBox="0 0 179 25" fill="none" xmlns="http://www.w3.org/2000/svg">
<path d="M13.6927 9.06036H12.3575C12.258 8.5632 12.0781 8.10392 11.8177 7.68252C11.562 7.25639 11.24 6.8847 10.8518 6.56747C10.4635 6.25023 10.0232 6.00402 9.53077 5.82883C9.03834 5.65364 8.50567 5.56605 7.93276 5.56605C7.0142 5.56605 6.17613 5.80516 5.41855 6.28338C4.66571 6.76159 4.06202 7.46472 3.60747 8.39275C3.15766 9.31605 2.93276 10.4477 2.93276 11.7876C2.93276 13.1371 3.15766 14.2734 3.60747 15.1967C4.06202 16.12 4.66571 16.8208 5.41855 17.299C6.17613 17.7725 7.0142 18.0092 7.93276 18.0092C8.50567 18.0092 9.03834 17.9216 9.53077 17.7464C10.0232 17.5713 10.4635 17.3274 10.8518 17.0149C11.24 16.6977 11.562 16.326 11.8177 15.8999C12.0781 15.4737 12.258 15.0121 12.3575 14.5149H13.6927C13.5743 15.1825 13.3518 15.8052 13.0251 16.3828C12.7031 16.9557 12.2912 17.4576 11.7893 17.8885C11.2921 18.3194 10.7192 18.6555 10.0705 18.897C9.42187 19.1385 8.70927 19.2592 7.93276 19.2592C6.71117 19.2592 5.62688 18.9538 4.67992 18.343C3.73295 17.7275 2.98957 16.861 2.4498 15.7436C1.91476 14.6262 1.64724 13.3075 1.64724 11.7876C1.64724 10.2678 1.91476 8.94909 2.4498 7.83167C2.98957 6.71425 3.73295 5.85014 4.67992 5.23934C5.62688 4.62381 6.71117 4.31605 7.93276 4.31605C8.70927 4.31605 9.42187 4.43678 10.0705 4.67826C10.7192 4.915 11.2921 5.25118 11.7893 5.68678C12.2912 6.11766 12.7031 6.61955 13.0251 7.19247C13.3518 7.76538 13.5743 8.38802 13.6927 9.06036ZM20.7896 19.2876C19.8474 19.2876 19.0141 19.0485 18.2896 18.5703C17.5699 18.0921 17.0065 17.4316 16.5993 16.5888C16.1921 15.7412 15.9885 14.7635 15.9885 13.6555C15.9885 12.5381 16.1921 11.5556 16.5993 10.7081C17.0065 9.85582 17.5699 9.19294 18.2896 8.71945C19.0141 8.24123 19.8474 8.00213 20.7896 8.00213C21.7319 8.00213 22.5628 8.24123 23.2825 8.71945C24.0022 9.19767 24.5657 9.86055 24.9729 10.7081C25.3848 11.5556 25.5908 12.5381 25.5908 13.6555C25.5908 14.7635 25.3872 15.7412 24.98 16.5888C24.5728 17.4316 24.007 18.0921 23.2825 18.5703C22.5628 19.0485 21.7319 19.2876 20.7896 19.2876ZM20.7896 18.13C21.5472 18.13 22.1888 17.9264 22.7144 17.5192C23.2399 17.112 23.6377 16.5698 23.9075 15.8928C24.1822 15.2157 24.3195 14.4699 24.3195 13.6555C24.3195 12.8411 24.1822 12.093 23.9075 11.4112C23.6377 10.7294 23.2399 10.1825 22.7144 9.77059C22.1888 9.35866 21.5472 9.15269 20.7896 9.15269C20.0368 9.15269 19.3952 9.35866 18.8649 9.77059C18.3394 10.1825 17.9393 10.7294 17.6646 11.4112C17.3948 12.093 17.2598 12.8411 17.2598 13.6555C17.2598 14.4699 17.3948 15.2157 17.6646 15.8928C17.9393 16.5698 18.3394 17.112 18.8649 17.5192C19.3905 17.9264 20.0321 18.13 20.7896 18.13ZM29.6302 12.2422V19.0604H28.366V8.15127H29.5947V9.86292H29.7083C29.964 9.30421 30.3617 8.85677 30.9015 8.52059C31.446 8.17968 32.1184 8.00923 32.9186 8.00923C33.6525 8.00923 34.2964 8.16311 34.8504 8.47088C35.4091 8.77391 35.8423 9.22135 36.1501 9.8132C36.4626 10.4051 36.6188 11.1319 36.6188 11.9936V19.0604H35.3546V12.0717C35.3546 11.1768 35.1037 10.469 34.6018 9.94815C34.1046 9.42731 33.437 9.1669 32.5989 9.1669C32.026 9.1669 31.517 9.29 31.072 9.53622C30.6269 9.78243 30.2741 10.1375 30.0137 10.6016C29.758 11.0608 29.6302 11.6077 29.6302 12.2422ZM44.2449 8.15127V9.25213H39.0389V8.15127H44.2449ZM40.6654 5.53764H41.9367V16.2124C41.9367 16.6669 42.0148 17.0244 42.171 17.2848C42.3273 17.5405 42.5309 17.7228 42.7818 17.8317C43.0328 17.9358 43.3003 17.9879 43.5844 17.9879C43.7501 17.9879 43.8922 17.9785 44.0105 17.9595C44.1289 17.9358 44.2331 17.9122 44.323 17.8885L44.5929 19.032C44.4698 19.0793 44.3183 19.1219 44.1384 19.1598C43.9584 19.2024 43.7359 19.2237 43.4708 19.2237C43.0067 19.2237 42.5593 19.1219 42.1284 18.9183C41.7023 18.7147 41.3519 18.4117 41.0773 18.0092C40.8027 17.6068 40.6654 17.1072 40.6654 16.5106V5.53764ZM47.116 19.0604V8.15127H48.3447V9.82741H48.437C48.6548 9.27817 49.0336 8.83546 49.5734 8.49928C50.1179 8.15837 50.7334 7.98792 51.42 7.98792C51.5241 7.98792 51.6401 7.99029 51.768 7.99502C51.8958 7.99976 52.0024 8.00449 52.0876 8.00923V9.29474C52.0308 9.28527 51.9313 9.27106 51.7893 9.25213C51.6472 9.23319 51.4934 9.22372 51.3276 9.22372C50.7595 9.22372 50.2528 9.34445 49.8078 9.58593C49.3674 9.82267 49.0194 10.1517 48.7637 10.5731C48.508 10.9945 48.3802 11.4751 48.3802 12.0149V19.0604H47.116ZM57.2918 19.3089C56.6336 19.3089 56.0323 19.1811 55.4878 18.9254C54.9433 18.665 54.5101 18.291 54.1881 17.8033C53.8661 17.3108 53.7051 16.7142 53.7051 16.0135C53.7051 15.4737 53.8069 15.0192 54.0105 14.6499C54.2141 14.2805 54.503 13.9775 54.877 13.7408C55.2511 13.504 55.6938 13.317 56.2051 13.1797C56.7165 13.0424 57.2799 12.9358 57.8955 12.8601C58.5063 12.7843 59.0224 12.718 59.4438 12.6612C59.8699 12.6044 60.1942 12.5144 60.4168 12.3913C60.6393 12.2682 60.7506 12.0694 60.7506 11.7947V11.5391C60.7506 10.7957 60.528 10.2109 60.083 9.7848C59.6426 9.35392 59.0082 9.13849 58.1796 9.13849C57.3936 9.13849 56.752 9.31131 56.2548 9.65695C55.7624 10.0026 55.4168 10.4098 55.2179 10.8785L54.0176 10.4453C54.2638 9.84872 54.6047 9.37286 55.0404 9.01775C55.476 8.6579 55.9637 8.39985 56.5034 8.2436C57.0432 8.08262 57.5901 8.00213 58.144 8.00213C58.5607 8.00213 58.994 8.05658 59.4438 8.16548C59.8983 8.27438 60.3197 8.46377 60.708 8.73366C61.0962 8.99881 61.4111 9.3705 61.6526 9.84872C61.894 10.3222 62.0148 10.9235 62.0148 11.6527V19.0604H60.7506V17.3345H60.6725C60.5209 17.6565 60.296 17.969 59.9977 18.272C59.6994 18.575 59.3254 18.8236 58.8756 19.0178C58.4258 19.2119 57.8978 19.3089 57.2918 19.3089ZM57.4622 18.1513C58.1346 18.1513 58.717 18.0021 59.2094 17.7038C59.7018 17.4055 60.0806 17.0102 60.3458 16.5178C60.6156 16.0206 60.7506 15.4737 60.7506 14.8771V13.3004C60.6559 13.3904 60.4973 13.4709 60.2747 13.5419C60.0569 13.6129 59.8036 13.6768 59.5148 13.7337C59.2307 13.7857 58.9466 13.8307 58.6625 13.8686C58.3784 13.9065 58.1227 13.9396 57.8955 13.968C57.2799 14.0438 56.7544 14.1622 56.3188 14.3231C55.8832 14.4841 55.5494 14.7067 55.3173 14.9908C55.0853 15.2701 54.9693 15.63 54.9693 16.0703C54.9693 16.7332 55.2061 17.2469 55.6796 17.6115C56.153 17.9713 56.7473 18.1513 57.4622 18.1513ZM69.6391 19.2876C68.6637 19.2876 67.8138 19.0438 67.0894 18.5561C66.3697 18.0684 65.811 17.4008 65.4132 16.5533C65.0155 15.7057 64.8166 14.7398 64.8166 13.6555C64.8166 12.5618 65.0179 11.5888 65.4203 10.7365C65.8275 9.88423 66.391 9.21661 67.1107 8.73366C67.8304 8.24597 68.6661 8.00213 69.6178 8.00213C70.3469 8.00213 71.0074 8.14417 71.5993 8.42826C72.1912 8.70762 72.6789 9.10298 73.0624 9.61434C73.4506 10.121 73.6945 10.7128 73.7939 11.3899H72.5155C72.3829 10.7744 72.0633 10.2488 71.5567 9.8132C71.0548 9.37286 70.4156 9.15269 69.6391 9.15269C68.9431 9.15269 68.3275 9.34209 67.7925 9.72088C67.2574 10.0949 66.8384 10.6181 66.5354 11.2905C66.2371 11.9581 66.0879 12.7322 66.0879 13.6129C66.0879 14.4983 66.2347 15.282 66.5283 15.9638C66.8218 16.6409 67.2338 17.1712 67.7641 17.5547C68.2991 17.9382 68.9241 18.13 69.6391 18.13C70.122 18.13 70.5624 18.04 70.9601 17.8601C71.3626 17.6754 71.6987 17.415 71.9686 17.0788C72.2432 16.7427 72.4279 16.3426 72.5226 15.8785H73.801C73.7063 16.5367 73.4719 17.1238 73.0979 17.6399C72.7286 18.1513 72.248 18.5537 71.6561 18.8473C71.069 19.1409 70.3967 19.2876 69.6391 19.2876ZM80.8074 8.15127V9.25213H75.6014V8.15127H80.8074ZM77.2279 5.53764H78.4992V16.2124C78.4992 16.6669 78.5773 17.0244 78.7335 17.2848C78.8898 17.5405 79.0934 17.7228 79.3443 17.8317C79.5953 17.9358 79.8628 17.9879 80.1469 17.9879C80.3126 17.9879 80.4547 17.9785 80.573 17.9595C80.6914 17.9358 80.7956 17.9122 80.8855 17.8885L81.1554 19.032C81.0323 19.0793 80.8808 19.1219 80.7009 19.1598C80.5209 19.2024 80.2984 19.2237 80.0333 19.2237C79.5692 19.2237 79.1218 19.1219 78.6909 18.9183C78.2648 18.7147 77.9144 18.4117 77.6398 18.0092C77.3652 17.6068 77.2279 17.1072 77.2279 16.5106V5.53764ZM92.0947 19.0604L88.1103 4.51491H89.4597L92.7552 17.022H92.8688L96.1643 4.51491H97.6984L100.994 17.022H101.107L104.403 4.51491H105.759L101.775 19.0604H100.355L96.9811 6.72372H96.8887L93.5151 19.0604H92.0947ZM107.911 19.0604V8.15127H109.183V19.0604H107.911ZM108.558 6.27627C108.297 6.27627 108.075 6.18868 107.89 6.01349C107.705 5.83356 107.613 5.61813 107.613 5.36718C107.613 5.11623 107.705 4.90317 107.89 4.72798C108.075 4.54805 108.297 4.45809 108.558 4.45809C108.818 4.45809 109.041 4.54805 109.225 4.72798C109.41 4.90317 109.502 5.11623 109.502 5.36718C109.502 5.61813 109.41 5.83356 109.225 6.01349C109.041 6.18868 108.818 6.27627 108.558 6.27627ZM112.185 19.0604V18.0589L118.492 9.43678V9.34445H112.455V8.15127H120.118V9.19531L113.925 17.7749V17.8672H120.346V19.0604H112.185ZM126.178 19.3089C125.52 19.3089 124.919 19.1811 124.375 18.9254C123.83 18.665 123.397 18.291 123.075 17.8033C122.753 17.3108 122.592 16.7142 122.592 16.0135C122.592 15.4737 122.694 15.0192 122.897 14.6499C123.101 14.2805 123.39 13.9775 123.764 13.7408C124.138 13.504 124.58 13.317 125.092 13.1797C125.603 13.0424 126.167 12.9358 126.782 12.8601C127.393 12.7843 127.909 12.718 128.33 12.6612C128.757 12.6044 129.081 12.5144 129.303 12.3913C129.526 12.2682 129.637 12.0694 129.637 11.7947V11.5391C129.637 10.7957 129.415 10.2109 128.97 9.7848C128.529 9.35392 127.895 9.13849 127.066 9.13849C126.28 9.13849 125.639 9.31131 125.142 9.65695C124.649 10.0026 124.303 10.4098 124.105 10.8785L122.904 10.4453C123.151 9.84872 123.491 9.37286 123.927 9.01775C124.363 8.6579 124.85 8.39985 125.39 8.2436C125.93 8.08262 126.477 8.00213 127.031 8.00213C127.447 8.00213 127.881 8.05658 128.33 8.16548C128.785 8.27438 129.206 8.46377 129.595 8.73366C129.983 8.99881 130.298 9.3705 130.539 9.84872C130.781 10.3222 130.902 10.9235 130.902 11.6527V19.0604H129.637V17.3345H129.559C129.408 17.6565 129.183 17.969 128.884 18.272C128.586 18.575 128.212 18.8236 127.762 19.0178C127.312 19.2119 126.785 19.3089 126.178 19.3089ZM126.349 18.1513C127.021 18.1513 127.604 18.0021 128.096 17.7038C128.589 17.4055 128.967 17.0102 129.232 16.5178C129.502 16.0206 129.637 15.4737 129.637 14.8771V13.3004C129.543 13.3904 129.384 13.4709 129.161 13.5419C128.944 13.6129 128.69 13.6768 128.402 13.7337C128.117 13.7857 127.833 13.8307 127.549 13.8686C127.265 13.9065 127.009 13.9396 126.782 13.968C126.167 14.0438 125.641 14.1622 125.205 14.3231C124.77 14.4841 124.436 14.7067 124.204 14.9908C123.972 15.2701 123.856 15.63 123.856 16.0703C123.856 16.7332 124.093 17.2469 124.566 17.6115C125.04 17.9713 125.634 18.1513 126.349 18.1513ZM134.264 19.0604V8.15127H135.493V9.82741H135.585C135.803 9.27817 136.182 8.83546 136.722 8.49928C137.266 8.15837 137.882 7.98792 138.568 7.98792C138.673 7.98792 138.789 7.99029 138.916 7.99502C139.044 7.99976 139.151 8.00449 139.236 8.00923V9.29474C139.179 9.28527 139.08 9.27106 138.938 9.25213C138.796 9.23319 138.642 9.22372 138.476 9.22372C137.908 9.22372 137.401 9.34445 136.956 9.58593C136.516 9.82267 136.168 10.1517 135.912 10.5731C135.656 10.9945 135.529 11.4751 135.529 12.0149V19.0604H134.264ZM144.989 19.2876C144.094 19.2876 143.31 19.0509 142.638 18.5774C141.966 18.1039 141.44 17.4434 141.061 16.5959C140.687 15.7483 140.5 14.7611 140.5 13.6342C140.5 12.5121 140.687 11.5296 141.061 10.6868C141.44 9.83925 141.968 9.1811 142.645 8.71235C143.322 8.23887 144.111 8.00213 145.01 8.00213C145.673 8.00213 146.225 8.1205 146.665 8.35724C147.105 8.58925 147.458 8.87807 147.723 9.22372C147.988 9.56936 148.194 9.90553 148.341 10.2322H148.455V4.51491H149.726V19.0604H148.49V17.0362H148.341C148.194 17.3677 147.986 17.7086 147.716 18.0589C147.446 18.4046 147.089 18.6958 146.644 18.9325C146.203 19.1693 145.652 19.2876 144.989 19.2876ZM145.138 18.13C145.844 18.13 146.445 17.9382 146.942 17.5547C147.439 17.1664 147.818 16.6338 148.078 15.9567C148.344 15.2749 148.476 14.4936 148.476 13.6129C148.476 12.7417 148.346 11.9723 148.085 11.3047C147.825 10.6323 147.446 10.1068 146.949 9.72798C146.452 9.34445 145.848 9.15269 145.138 9.15269C144.409 9.15269 143.793 9.35156 143.291 9.74928C142.794 10.1423 142.415 10.6749 142.155 11.3473C141.899 12.0196 141.772 12.7749 141.772 13.6129C141.772 14.4605 141.902 15.2251 142.162 15.907C142.423 16.5888 142.801 17.1309 143.299 17.5334C143.8 17.9311 144.414 18.13 145.138 18.13Z" fill="white"/>
<path d="M174.3 8.06036L173.05 5.31036L170.3 4.06036L173.05 2.81036L174.3 0.0603638L175.55 2.81036L178.3 4.06036L175.55 5.31036L174.3 8.06036ZM174.3 22.0604L173.05 19.3104L170.3 18.0604L173.05 16.8104L174.3 14.0604L175.55 16.8104L178.3 18.0604L175.55 19.3104L174.3 22.0604ZM164.3 19.0604L161.8 13.5604L156.3 11.0604L161.8 8.56036L164.3 3.06036L166.8 8.56036L172.3 11.0604L166.8 13.5604L164.3 19.0604ZM164.3 14.2104L165.3 12.0604L167.45 11.0604L165.3 10.0604L164.3 7.91036L163.3 10.0604L161.15 11.0604L163.3 12.0604L164.3 14.2104Z" fill="white"/>
</svg>
