<svg width="187" height="40" viewBox="0 0 187 40" fill="none" xmlns="http://www.w3.org/2000/svg">
<g clip-path="url(#clip0_99_128)">
<path d="M58.0996 5.96753C55.9219 5.96753 53.8232 6.24265 52.9685 6.47522C51.7245 6.82692 51.4142 7.37432 51.1801 8.50883L46.2436 31.4118C46.1647 31.8797 46.0885 32.2712 46.0885 32.6626C46.0885 33.7971 46.8276 34.5373 48.0321 34.5373C49.355 34.5373 49.8994 33.6779 50.1702 32.3477L51.5694 25.8215C52.5397 25.9377 53.8232 26.0569 55.6511 26.0569C63.6961 26.0569 68.7116 21.6805 68.7116 15.0748C68.7116 9.28881 64.706 5.96753 58.0996 5.96753ZM55.4565 22.3045C54.2125 22.3045 53.2393 22.2648 52.3479 22.1485L54.9516 9.9922C55.7668 9.87592 56.9741 9.71709 58.2181 9.71709C62.4945 9.71709 64.6721 11.7507 64.6721 15.1117C64.6693 19.4115 61.5579 22.3045 55.4565 22.3045Z" fill="white"/>
<path d="M184.741 26.9928C184.081 26.9928 183.652 27.3842 182.837 28.2833C181.398 29.7696 180.504 30.5892 179.378 30.5892C178.369 30.5892 177.824 29.7696 177.824 28.4393C177.824 27.6962 177.979 26.7971 178.174 25.8215L179.613 19.0201H183.928C185.288 19.0201 186.106 18.2373 186.106 16.8305C186.106 16.0477 185.601 15.4634 184.436 15.4634H180.388L181.088 12.2981C181.167 11.8301 181.243 11.399 181.243 11.0076C181.243 9.91279 180.504 9.12997 179.299 9.12997C178.016 9.12997 177.435 9.98937 177.161 11.3196L176.267 15.4634H174.439C173.04 15.4634 172.225 16.2462 172.225 17.653C172.225 18.4358 172.769 19.0201 173.934 19.0201H175.528L174.089 25.742C173.934 26.4851 173.74 27.6962 173.74 28.947C173.74 32.1123 175.373 34.4182 178.871 34.4182C180.893 34.4182 182.679 33.4028 184.041 32.1889C185.364 31.0175 186.335 29.571 186.335 28.6322C186.335 27.7359 185.635 26.9928 184.741 26.9928Z" fill="white"/>
<path d="M95.3374 8.27343C95.3374 7.13892 94.5589 6.39581 93.3544 6.39581C92.0709 6.39581 91.4898 7.2552 91.2162 8.58542L86.3587 31.2926C86.243 31.7606 86.1641 32.152 86.1641 32.5434C86.1641 33.678 86.9426 34.4182 88.1076 34.4182C89.4306 34.4182 90.0117 33.5588 90.2853 32.2286L95.1428 9.52422C95.2218 9.0534 95.3374 8.66483 95.3374 8.27343Z" fill="white"/>
<path d="M164.721 15.072C158.501 15.072 154.265 21.2863 154.265 27.1885C154.265 27.2992 154.267 27.4098 154.27 27.5176C153.294 29.0066 152.047 30.5495 151.193 30.5495C150.572 30.5495 150.338 29.9624 150.338 29.0633C150.338 27.9685 150.648 26.1306 150.998 24.5281L154.225 9.51855C154.304 9.05056 154.38 8.65916 154.38 8.26775C154.38 7.13324 153.641 6.39014 152.437 6.39014C151.114 6.39014 150.572 7.24953 150.298 8.57974L148.55 16.7085C147.616 15.7328 146.253 15.0663 144.194 15.0663C140.064 15.0663 135.909 18.2628 134.29 23.1667C132.507 27.8012 130.914 30.5439 129.656 30.5439C129.19 30.5439 128.917 30.1525 128.917 29.4888C128.917 27.5346 130.005 22.7668 130.471 20.4609C130.626 19.6015 130.705 19.2498 130.705 18.7421C130.705 17.0233 127.867 14.9897 124.175 14.9897C119.904 14.9897 116.037 17.7097 114.099 21.7486C111.219 26.8652 108.576 30.5439 107.267 30.5439C106.683 30.5439 106.488 29.8008 106.333 29.0974L105.365 23.7113L111.312 18.8272C111.856 18.3592 112.556 17.6927 112.556 16.8333C112.556 15.7782 111.856 15.0748 110.807 15.0748C110.028 15.0748 109.368 15.5428 108.708 16.0902L99.7689 23.5156L102.762 9.52422C102.841 9.05624 102.956 8.66483 102.956 8.27342C102.956 7.13891 102.178 6.39581 100.973 6.39581C99.6899 6.39581 99.1088 7.2552 98.8352 8.58541L93.9777 31.2926C93.8621 31.7606 93.7831 32.152 93.7831 32.5434C93.7831 33.6779 94.5616 34.4182 95.7266 34.4182C97.0496 34.4182 97.6307 33.5588 97.9043 32.2286L98.5277 29.2987L102.181 26.3292L103.075 30.8615C103.425 32.6597 104.358 34.4182 106.767 34.4182C109.165 34.4182 111.052 32.2173 112.942 29.242C113.515 32.3591 115.721 34.4182 118.778 34.4182C121.85 34.4182 123.949 32.5803 125.309 30.1184V30.1978C125.309 32.7391 126.592 34.4182 128.846 34.4182C130.885 34.4182 132.578 33.1816 134.09 30.5552C134.947 32.8441 136.866 34.4182 139.534 34.4182C142.682 34.4182 144.936 32.5037 146.375 29.8461V30.0815C146.375 32.8951 147.774 34.4211 150.067 34.4211C152.092 34.4211 153.813 33.2383 155.283 31.3153C156.4 33.2383 158.403 34.4211 161.108 34.4211C167.328 34.4211 171.565 28.2068 171.565 22.2648C171.565 18.0813 169.037 15.072 164.721 15.072ZM125.969 23.0079C124.84 27.8919 122.431 30.6687 119.709 30.6687C117.881 30.6687 116.872 29.2619 116.872 27.1517C116.872 23.0079 119.864 18.5521 123.867 18.5521C125.072 18.5521 126.005 18.9038 126.821 19.4115L125.969 23.0079ZM147.619 20.9374C146.375 26.6837 143.537 30.6687 140.428 30.6687C138.719 30.6687 137.706 29.3384 137.706 27.1517C137.706 22.971 140.583 18.6315 144.431 18.6315C145.909 18.6315 147.035 19.1392 147.853 19.8029L147.619 20.9374ZM161.573 30.6687C159.319 30.6687 158.386 29.0265 158.386 26.956C158.386 23.1639 160.989 18.8272 164.256 18.8272C166.51 18.8272 167.443 20.4694 167.443 22.5399C167.443 26.3689 164.84 30.6687 161.573 30.6687Z" fill="white"/>
<path d="M78.3898 15.072C72.1699 15.072 67.933 21.2862 67.933 27.1885C67.933 31.4089 70.4604 34.4182 74.7735 34.4182C80.9934 34.4182 85.2303 28.2039 85.2303 22.2619C85.2303 18.0812 82.7029 15.072 78.3898 15.072ZM75.2418 30.6686C72.9879 30.6686 72.0542 29.0264 72.0542 26.956C72.0542 23.1639 74.6579 18.8272 77.9244 18.8272C80.1782 18.8272 81.1119 20.4694 81.1119 22.5399C81.1091 26.3688 78.5055 30.6686 75.2418 30.6686Z" fill="white"/>
<path d="M19.0367 8.3897C22.9985 8.3897 26.2101 6.5116 26.2101 4.19485C26.2101 1.8781 22.9985 0 19.0367 0C15.075 0 11.8633 1.8781 11.8633 4.19485C11.8633 6.5116 15.075 8.3897 19.0367 8.3897Z" fill="#E6007A"/>
<path d="M19.0367 39.9972C22.9985 39.9972 26.2101 38.1191 26.2101 35.8023C26.2101 33.4856 22.9985 31.6075 19.0367 31.6075C15.075 31.6075 11.8633 33.4856 11.8633 35.8023C11.8633 38.1191 15.075 39.9972 19.0367 39.9972Z" fill="#E6007A"/>
<path d="M9.04015 14.1964C11.021 10.7467 11.0082 7.01054 9.01144 5.85138C7.0147 4.69222 3.79022 6.54903 1.80934 9.99869C-0.171529 13.4483 -0.158672 17.1845 1.83806 18.3437C3.83479 19.5028 7.05928 17.646 9.04015 14.1964Z" fill="#E6007A"/>
<path d="M36.261 29.9982C38.2418 26.5485 38.2301 22.813 36.2347 21.6546C34.2393 20.4962 31.0159 22.3537 29.0351 25.8033C27.0542 29.253 27.0659 32.9885 29.0613 34.1469C31.0567 35.3053 34.2801 33.4479 36.261 29.9982Z" fill="#E6007A"/>
<path d="M9.01241 34.146C11.0091 32.9868 11.022 29.2506 9.04113 25.801C7.06026 22.3513 3.83577 20.4945 1.83904 21.6537C-0.157696 22.8128 -0.170553 26.549 1.81032 29.9987C3.79119 33.4483 7.01568 35.3051 9.01241 34.146Z" fill="#E6007A"/>
<path d="M36.2364 18.3446C38.2318 17.1862 38.2436 13.4507 36.2627 10.001C34.2818 6.55135 31.0584 4.6939 29.063 5.85228C27.0677 7.01066 27.0559 10.7462 29.0368 14.1959C31.0176 17.6455 34.241 19.503 36.2364 18.3446Z" fill="#E6007A"/>
</g>
<defs>
<clipPath id="clip0_99_128">
<rect width="186" height="40" fill="white" transform="translate(0.334595)"/>
</clipPath>
</defs>
</svg>
