<svg width="1932" height="453" viewBox="0 0 1932 453" fill="none" xmlns="http://www.w3.org/2000/svg">
<path fill-rule="evenodd" clip-rule="evenodd" d="M478.2 304.627C481.577 308.047 486.041 309.934 490.746 309.816C495.451 309.934 499.915 308.165 503.292 304.627C506.55 301.089 508.239 296.489 508.118 291.654V253.678H534.297C569.403 253.678 594.013 231.624 594.013 198.956C594.013 166.523 570.126 144.705 534.297 144.705H490.987C486.282 144.587 481.698 146.356 478.32 149.894C475.063 153.314 473.253 157.914 473.374 162.867V291.654C473.253 296.489 474.942 301.207 478.2 304.627ZM534.549 223.722H508.129V174.779H534.549C549.026 174.779 558.677 184.449 558.677 199.074C559.039 205.678 556.626 212.165 552.042 216.882C547.337 221.599 541.064 224.076 534.549 223.722Z" fill="white"/>
<path fill-rule="evenodd" clip-rule="evenodd" d="M739.357 298.826C742.763 304.605 749.21 308.026 756.144 307.908C765.227 307.919 772.72 301.017 773.174 292.222C772.931 286.915 770.985 281.844 767.579 277.716L741.79 242.453L745.439 239.976C759.467 230.058 767.601 214.112 767.214 197.283C767.214 165.086 741.912 143.386 703.959 143.386H658.099C653.091 143.186 648.225 145.019 644.669 148.443C641.114 151.868 639.192 156.574 639.366 161.43V289.863C639.366 299.699 647.589 307.672 657.734 307.672C667.878 307.672 676.102 299.699 676.102 289.863V251.888H707.121L739.357 298.826ZM704.206 222.049H676.228V173.341H704.206C719.411 173.341 729.751 183.012 729.751 197.519C730.111 204.167 727.527 210.648 722.648 215.334C717.769 220.019 711.059 222.462 704.206 222.049Z" fill="white"/>
<path fill-rule="evenodd" clip-rule="evenodd" d="M799.697 224.975C799.697 271.876 838.871 308.513 889.032 308.513C939.433 308.513 978.846 271.876 978.846 224.975C978.846 178.074 939.075 141.436 889.032 141.436C838.99 141.436 799.697 178.074 799.697 224.975ZM851.817 187.665C861.725 177.834 875.314 172.622 889.26 173.305C903.186 172.695 916.732 177.931 926.623 187.746C936.513 197.561 941.846 211.06 941.333 224.979C941.333 255.411 920.313 276.654 889.26 276.654C875.284 277.45 861.627 272.275 851.694 262.418C841.761 252.561 836.487 238.95 837.188 224.979C836.6 211.04 841.91 197.496 851.817 187.665Z" fill="white"/>
<path d="M1075.07 308.504C1070.15 308.572 1065.41 306.658 1061.96 303.208C1058.51 299.758 1056.66 295.073 1056.82 290.245V173.172H1018.14C1009.26 173.172 1002.08 166.011 1002.08 157.299C1002.08 148.468 1009.26 141.427 1018.14 141.427H1132C1140.88 141.427 1148.06 148.587 1148.06 157.299C1148.06 166.011 1140.88 173.172 1132 173.172H1093.44V290.126C1093.56 295.019 1091.74 299.792 1088.21 303.253C1084.68 306.833 1079.94 308.623 1074.95 308.504H1075.07Z" fill="white"/>
<path fill-rule="evenodd" clip-rule="evenodd" d="M1157.99 224.978C1157.99 271.879 1197.16 308.516 1247.32 308.516C1297.6 308.516 1337.13 271.879 1337.13 224.978C1337.13 178.077 1297.36 141.439 1247.32 141.439C1197.28 141.439 1157.99 178.077 1157.99 224.978ZM1210.12 187.668C1220.02 177.837 1233.61 172.625 1247.56 173.308C1261.48 172.699 1275.03 177.935 1284.92 187.75C1294.81 197.564 1300.15 211.064 1299.63 224.983C1299.63 255.414 1278.61 276.657 1247.56 276.657C1233.58 277.454 1219.93 272.278 1209.99 262.421C1200.06 252.564 1194.79 238.954 1195.49 224.983C1194.9 211.043 1200.21 197.5 1210.12 187.668Z" fill="white"/>
<path d="M1391.53 309.738C1386.69 309.906 1382 308.048 1378.64 304.632C1375.23 301.069 1373.41 296.319 1373.77 291.568V161.65C1373.53 156.662 1375.35 152.03 1378.76 148.587C1382.17 145.024 1386.91 143.243 1391.78 143.361H1467.44C1476.08 143.361 1483.13 150.487 1483.13 159.156C1483.23 163.291 1481.62 167.292 1478.67 170.261C1475.72 173.23 1471.68 174.92 1467.44 174.95H1409.41V216.515H1453.81C1462.57 216.515 1469.63 223.64 1469.63 232.428C1469.69 236.564 1468.06 240.552 1465.08 243.498C1462.11 246.445 1458.05 248.104 1453.81 248.104H1409.41V291.45C1409.66 296.2 1407.83 300.95 1404.43 304.513C1401.02 307.957 1396.4 309.738 1391.53 309.619V309.738Z" fill="white"/>
<path d="M1549.48 309.736C1544.71 309.854 1539.93 308.073 1536.58 304.748C1533.15 301.376 1531.33 296.712 1531.57 291.922V161.885C1531.33 155.472 1534.67 149.297 1540.29 145.972C1545.96 142.629 1553.01 142.629 1558.68 145.972C1564.29 149.297 1567.64 155.472 1567.4 161.885V291.922C1567.64 296.672 1565.85 301.423 1562.5 304.748C1559.04 308.192 1554.38 309.973 1549.48 309.854V309.736Z" fill="white"/>
<path fill-rule="evenodd" clip-rule="evenodd" d="M1716.69 300.003C1719.93 305.822 1726.4 309.266 1733.12 309.147C1742.03 309.095 1749.35 302.163 1749.79 293.352C1749.55 288.008 1747.63 282.902 1744.28 278.745L1718.85 243.237L1722.33 240.625C1736.17 230.688 1744.23 214.679 1743.92 197.754C1743.92 165.334 1718.97 143.483 1681.55 143.483H1636.33C1631.39 143.281 1626.59 145.127 1623.09 148.575C1619.58 152.024 1617.68 156.763 1617.86 161.652V290.977C1617.49 297.59 1620.87 303.857 1626.61 307.247C1632.34 310.846 1639.63 310.947 1645.46 307.509C1651.29 304.071 1654.67 297.679 1654.2 290.977V252.738H1684.78L1716.69 300.003ZM1681.78 222.693H1654.2V173.646H1681.78C1696.9 173.646 1706.97 183.384 1706.97 197.991C1707.29 204.676 1704.73 211.179 1699.93 215.888C1695.13 220.597 1688.53 223.07 1681.78 222.693Z" fill="white"/>
<path d="M1803.13 309.73C1798 309.896 1793.03 307.989 1789.4 304.459C1785.76 300.93 1783.77 296.091 1783.91 291.086V162.117C1783.66 157.081 1785.61 152.177 1789.27 148.623C1792.94 145.069 1797.97 143.198 1803.13 143.472H1885.73C1894.85 143.472 1902.27 150.598 1902.27 159.504C1902.27 168.411 1894.85 175.655 1885.73 175.655H1821.5V208.907H1864.07C1872.47 208.907 1879.16 215.319 1879.16 223.395C1879.16 231.47 1872.47 238.002 1864.07 238.002H1821.5V277.547H1889.01C1898.13 277.547 1905.55 284.673 1905.55 293.579C1905.55 302.486 1898.13 309.612 1889.01 309.612L1803.13 309.73Z" fill="white"/>
<path d="M31.5291 446.871C14.009 438.506 2.43671 421.443 1.27479 402.26C0.112876 383.078 9.54285 364.773 25.9283 354.406C42.3138 344.038 63.0947 343.228 80.2576 352.286C106.061 365.905 116.092 397.404 102.826 423.155C89.5593 448.906 57.8701 459.447 31.5291 446.871V446.871Z" fill="#F54703"/>
<path d="M19.2518 86.5269C-15.4993 150.112 -1.68448 228.819 52.7284 277.254C58.7711 282.724 68.1978 282.605 73.9988 277.135C97.606 255.188 105.051 221.209 92.7312 191.641C79.2094 160.977 87.2551 125.234 112.672 103.055C138.565 80.4002 175.801 75.3745 206.939 90.332C237.803 104.724 255.929 136.854 252.017 170.238C247.455 203.684 222.087 230.736 188.569 237.896C156.685 245.323 132.411 270.798 126.933 302.582C125.724 310.311 131.163 317.564 139.381 318.991C222.166 333.26 303.38 287.362 329.847 211.499C356.435 135.398 320.179 52.5194 244.887 16.8472C163.673 -21.441 61.0674 10.3073 19.2518 86.5269V86.5269Z" fill="url(#paint0_linear_708_294)"/>
<defs>
<linearGradient id="paint0_linear_708_294" x1="244.29" y1="372.614" x2="382.476" y2="83.201" gradientUnits="userSpaceOnUse">
<stop stop-color="#F54703"/>
<stop offset="1" stop-color="#FAC902"/>
</linearGradient>
</defs>
</svg>
